<?xml version="1.0" encoding="utf-8"?>
<!-- Generator: Adobe Illustrator 21.0.0, SVG Export Plug-In . SVG Version: 6.00 Build 0)  -->
<svg version="1.1" id="图层_1" xmlns="http://www.w3.org/2000/svg" xmlns:xlink="http://www.w3.org/1999/xlink" x="0px" y="0px"
	 viewBox="0 0 1024 1024" style="enable-background:new 0 0 1024 1024;" xml:space="preserve">
<style type="text/css">
	.st0{fill:none;stroke:#000000;stroke-width:10;stroke-linecap:round;stroke-miterlimit:100;}
	.st1{fill:none;stroke:#000000;stroke-width:10;stroke-miterlimit:100;}
</style>
<path class="st0" d="M520.5,607.8L382.1,746.2c-28.8,28.8-75.5,28.8-104.3,0l0,0c-28.8-28.8-28.8-75.5,0-104.3l190.8-190.7
	c28.8-28.8,75.5-28.8,104.3,0l0,0"/>
<path class="st0" d="M503.9,415.9l138.4-138.4c28.8-28.8,75.5-28.8,104.3,0l0,0c28.8,28.8,28.8,75.5,0,104.3L555.8,572.5
	c-28.8,28.8-75.5,28.8-104.3,0l0,0"/>
<circle class="st1" cx="511.3" cy="513.2" r="448"/>
</svg>
