<?xml version="1.0" encoding="utf-8"?>
<!-- Generator: Adobe Illustrator 21.0.0, SVG Export Plug-In . SVG Version: 6.00 Build 0)  -->
<svg version="1.1" id="图层_1" xmlns="http://www.w3.org/2000/svg" xmlns:xlink="http://www.w3.org/1999/xlink" x="0px" y="0px"
	 viewBox="0 0 1024 1024" style="enable-background:new 0 0 1024 1024;" xml:space="preserve">
<g>
	<path d="M739.2,108.2c11,0,20,9,20,20v734.7c0,12.5-10.2,20-20.2,20c-4.7,0-9.2-1.7-12.9-4.9L518.9,699.4l-6.5-5.6l-6.5,5.6
		L299.4,877.8c-3.7,3.2-8.2,4.9-12.9,4.9c-9.9,0-20.2-7.5-20.2-20V128.1c0-11,9-20,20-20H739.2 M739.2,98.2H286.3
		c-16.6,0-30,13.4-30,30v734.5c0,17.9,14.7,30,30.2,30c6.7,0,13.6-2.3,19.4-7.4L512.3,707l207.3,178.5c5.9,5.1,12.7,7.3,19.4,7.3
		c15.5,0,30.2-12.1,30.2-30V128.1C769.1,111.6,755.7,98.2,739.2,98.2L739.2,98.2z"/>
</g>
</svg>
