<?xml version="1.0" encoding="utf-8"?>
<!-- Generator: Adobe Illustrator 21.0.0, SVG Export Plug-In . SVG Version: 6.00 Build 0)  -->
<svg version="1.1" id="图层_1" xmlns="http://www.w3.org/2000/svg" xmlns:xlink="http://www.w3.org/1999/xlink" x="0px" y="0px"
	 viewBox="0 0 1024 1024" style="enable-background:new 0 0 1024 1024;" xml:space="preserve">
<style type="text/css">
	.st0{fill:none;stroke:#000000;stroke-width:10;stroke-miterlimit:10;}
</style>
<path class="st0" d="M511.3,640L511.3,640c-17.5,0-31.6-14.2-31.6-31.6V287.6c0-17.5,14.2-31.6,31.6-31.6h0
	c17.5,0,31.6,14.2,31.6,31.6v320.8C543,625.8,528.8,640,511.3,640z"/>
<path class="st0" d="M511.3,767.5L511.3,767.5c-17.5,0-31.6-14.2-31.6-31.6v0c0-17.5,14.2-31.6,31.6-31.6h0
	c17.5,0,31.6,14.2,31.6,31.6v0C543,753.3,528.8,767.5,511.3,767.5z"/>
<path class="st0" d="M473.7,158.3L105.9,766.8c-17.7,29.3,3.4,66.7,37.6,66.7h735.7c34.2,0,55.3-37.4,37.6-66.7L548.9,158.3
	C531.8,130,490.8,130,473.7,158.3z"/>
</svg>
