<?xml version="1.0" encoding="utf-8"?>
<!-- Generator: Adobe Illustrator 21.0.0, SVG Export Plug-In . SVG Version: 6.00 Build 0)  -->
<svg version="1.1" id="图层_1" xmlns="http://www.w3.org/2000/svg" xmlns:xlink="http://www.w3.org/1999/xlink" x="0px" y="0px"
	 viewBox="0 0 1024 1024" style="enable-background:new 0 0 1024 1024;" xml:space="preserve">
<style type="text/css">
	.st0{fill:none;}
</style>
<g>
	<path class="st0" d="M507.8,507.8c0.6-0.6,1.3-1,2-1.2c34.2-42.5,54.8-96.6,54.8-155.3c0-136.8-111.3-248.1-248.1-248.1
		c-136.8,0-248.1,111.3-248.1,248.1c0,136.8,111.3,248.1,248.1,248.1c76.1,0,144.4-34.5,189.9-88.6
		C506.5,509.7,507,508.6,507.8,507.8z"/>
	<path d="M931.5,924.8L518.7,511.7c36.2-45.5,55.9-101.4,55.9-160.4c0-68.9-26.8-133.8-75.6-182.5C450.2,120,385.4,93.2,316.5,93.2
		S182.7,120,133.9,168.8c-48.8,48.8-75.6,113.6-75.6,182.5s26.9,133.8,75.6,182.5c48.8,48.8,113.6,75.6,182.5,75.6
		s133.8-26.8,182.5-75.6c4.7-4.7,9.1-9.5,13.4-14.4l412.1,412.4c1,1,2.3,1.5,3.5,1.5c1.3,0,2.6-0.5,3.5-1.5
		C933.5,929.9,933.5,926.7,931.5,924.8z M316.5,599.4c-136.8,0-248.1-111.3-248.1-248.1c0-136.8,111.3-248.1,248.1-248.1
		c136.8,0,248.1,111.3,248.1,248.1c0,58.7-20.5,112.8-54.8,155.3c-0.7,0.2-1.4,0.6-2,1.2c-0.8,0.8-1.3,1.9-1.4,3
		C460.8,564.9,392.6,599.4,316.5,599.4z"/>
</g>
</svg>
