<?xml version="1.0" encoding="utf-8"?>
<!-- Generator: Adobe Illustrator 21.0.0, SVG Export Plug-In . SVG Version: 6.00 Build 0)  -->
<svg version="1.1" id="图层_1" xmlns="http://www.w3.org/2000/svg" xmlns:xlink="http://www.w3.org/1999/xlink" x="0px" y="0px"
	 viewBox="0 0 1024 1024" style="enable-background:new 0 0 1024 1024;" xml:space="preserve">
<g>
	<path d="M356.9,225.9c4.3,0,8.5,1.1,12.5,3.1l491.9,259.3c9,4.7,14.3,13.6,14.3,23.8c0,10.1-5.4,19-14.4,23.7L369.3,792.7
		c-3.9,2.1-8.1,3.1-12.4,3.1c-12.9,0-26.8-10.3-26.8-26.8V252.8C330.1,236.2,344,225.9,356.9,225.9 M356.9,215.9
		c-19.3,0-36.8,15.5-36.8,36.8V769c0,21.4,17.5,36.8,36.8,36.8c5.7,0,11.5-1.3,17-4.2l491.9-256.9c26.3-13.7,26.4-51.3,0.1-65.2
		L374,220.2C368.4,217.3,362.6,215.9,356.9,215.9L356.9,215.9z"/>
</g>
</svg>
