<?xml version="1.0" encoding="utf-8"?>
<!-- Generator: Adobe Illustrator 21.0.0, SVG Export Plug-In . SVG Version: 6.00 Build 0)  -->
<svg version="1.1" id="图层_1" xmlns="http://www.w3.org/2000/svg" xmlns:xlink="http://www.w3.org/1999/xlink" x="0px" y="0px"
	 viewBox="0 0 1024 1024" style="enable-background:new 0 0 1024 1024;" xml:space="preserve">
<style type="text/css">
	.st0{fill:none;stroke:#000000;stroke-width:10;stroke-miterlimit:10;}
</style>
<circle class="st0" cx="511.3" cy="512.1" r="448"/>
<path class="st0" d="M511.3,703.9L511.3,703.9c-17.5,0-31.6-14.2-31.6-31.6V223.4c0-17.5,14.2-31.6,31.6-31.6h0
	c17.5,0,31.6,14.2,31.6,31.6v448.9C543,689.7,528.8,703.9,511.3,703.9z"/>
<path class="st0" d="M511.3,831.2L511.3,831.2c-17.5,0-31.6-14.2-31.6-31.6v0c0-17.5,14.2-31.6,31.6-31.6h0
	c17.5,0,31.6,14.2,31.6,31.6v0C543,817,528.8,831.2,511.3,831.2z"/>
</svg>
