<?xml version="1.0" encoding="utf-8"?>
<!-- Generator: Adobe Illustrator 21.0.0, SVG Export Plug-In . SVG Version: 6.00 Build 0)  -->
<svg version="1.1" id="图层_1" xmlns="http://www.w3.org/2000/svg" xmlns:xlink="http://www.w3.org/1999/xlink" x="0px" y="0px"
	 viewBox="0 0 1024 1024" style="enable-background:new 0 0 1024 1024;" xml:space="preserve">
<g id="椭圆_1_拷贝_2">
	<g>
		<path d="M477,333.4c16.1,0,31.8,2.9,43.6,8V418v9.3l9.2,0.7c52.1,4.1,102.1,13.7,148.7,28.5c45.2,14.5,85.9,33.5,120.8,56.5
			c34.7,22.9,62.6,49,82.8,77.5c15.8,22.3,26.6,45.5,32.2,69.5c-86.9-53.8-204.5-84.4-326.8-84.4c-18.1,0-37,0.8-57.8,2.5l-9.2,0.7
			v9.2V683c-11.9,5.1-27.5,8-43.6,8c-17.6,0-34.6-3.5-46.8-9.5L122.9,528.7c-9.8-4.9-15.7-11.1-15.7-16.5s5.9-11.6,15.7-16.5
			l307.3-152.8C442.4,336.9,459.4,333.4,477,333.4 M477,323.4c-18.5,0-37.1,3.5-51.2,10.5L118.4,486.8c-28.3,14.1-28.3,36.9,0,50.9
			l307.3,152.8c14.1,7,32.7,10.5,51.2,10.5s37.1-3.5,51.2-10.5l2.4-1.2V587.9c18.7-1.5,37.6-2.4,57-2.4c135.5,0,256.9,37,340.4,95.3
			C914.2,544.6,745.9,434.7,530.6,418v-82.8l-2.4-1.2C514.1,326.9,495.5,323.4,477,323.4L477,323.4z"/>
	</g>
</g>
</svg>
