<?xml version="1.0" encoding="utf-8"?>
<!-- Generator: Adobe Illustrator 21.0.0, SVG Export Plug-In . SVG Version: 6.00 Build 0)  -->
<svg version="1.1" id="图层_1" xmlns="http://www.w3.org/2000/svg" xmlns:xlink="http://www.w3.org/1999/xlink" x="0px" y="0px"
	 viewBox="0 0 1024 1024" style="enable-background:new 0 0 1024 1024;" xml:space="preserve">
<path d="M511.3,63.6c-247.4,0-448,200.6-448,448s200.6,448,448,448s448-200.6,448-448S758.8,63.6,511.3,63.6z M394.1,767.8
	c0,5.5-4.5,10-10,10s-10-4.5-10-10V256c0-5.5,4.5-10,10-10s10,4.5,10,10V767.8z M650.1,767.8c0,5.5-4.5,10-10,10s-10-4.5-10-10V256
	c0-5.5,4.5-10,10-10s10,4.5,10,10V767.8z"/>
</svg>
