<?xml version="1.0" encoding="utf-8"?>
<!-- Generator: Adobe Illustrator 21.0.0, SVG Export Plug-In . SVG Version: 6.00 Build 0)  -->
<svg version="1.1" id="图层_1" xmlns="http://www.w3.org/2000/svg" xmlns:xlink="http://www.w3.org/1999/xlink" x="0px" y="0px"
	 viewBox="0 0 1024 1024" style="enable-background:new 0 0 1024 1024;" xml:space="preserve">
<path d="M512,65.2c-247.4,0-448,200.6-448,448s200.6,448,448,448s448-200.6,448-448S759.4,65.2,512,65.2z M256,575.8
	c-35.4,0-64-28.7-64-64s28.7-64,64-64c35.4,0,64,28.7,64,64S291.4,575.8,256,575.8z M512.1,575.8c-35.4,0-64-28.7-64-64
	s28.7-64,64-64s64,28.7,64,64S547.5,575.8,512.1,575.8z M768.1,575.8c-35.4,0-64-28.7-64-64s28.7-64,64-64c35.4,0,64,28.7,64,64
	S803.5,575.8,768.1,575.8z"/>
</svg>
