<?xml version="1.0" encoding="utf-8"?>
<!-- Generator: Adobe Illustrator 21.0.0, SVG Export Plug-In . SVG Version: 6.00 Build 0)  -->
<svg version="1.1" id="图层_1" xmlns="http://www.w3.org/2000/svg" xmlns:xlink="http://www.w3.org/1999/xlink" x="0px" y="0px"
	 viewBox="0 0 1024 1024" style="enable-background:new 0 0 1024 1024;" xml:space="preserve">
<path d="M511.3,65.2c-247.4,0-448,200.6-448,448s200.6,448,448,448s448-200.6,448-448S758.8,65.2,511.3,65.2z M706.9,700.7
	c2,2,1.9,5.1,0,7.1c-1,1-2.3,1.5-3.5,1.5c-1.3,0-2.6-0.5-3.5-1.5L511.6,519.1L322.9,707.4c-1,1-2.3,1.5-3.5,1.5
	c-1.3,0-2.6-0.5-3.5-1.5c-2-2-1.9-5.1,0-7.1l188.7-188.3L315.8,322.9c-2-2-1.9-5.1,0-7.1c2-2,5.1-1.9,7.1,0L511.6,505l189-188.5
	c2-2,5.1-1.9,7.1,0s1.9,5.1,0,7.1l-189,188.5L706.9,700.7z"/>
</svg>
