<?xml version="1.0" encoding="utf-8"?>
<!-- Generator: Adobe Illustrator 21.0.0, SVG Export Plug-In . SVG Version: 6.00 Build 0)  -->
<svg version="1.1" id="图层_1" xmlns="http://www.w3.org/2000/svg" xmlns:xlink="http://www.w3.org/1999/xlink" x="0px" y="0px"
	 viewBox="0 0 1024 1024" style="enable-background:new 0 0 1024 1024;" xml:space="preserve">
<path d="M512.3,65.2c-247.4,0-448,200.6-448,448s200.6,448,448,448s448-200.6,448-448S759.7,65.2,512.3,65.2z M772.3,324.4
	L459.6,702.2c-2.6,3.1-6.3,5-10.4,5.2c-0.2,0-0.4,0-0.7,0c-3.8,0-7.5-1.5-10.1-4.2L252.1,516.8c-2-2-2-5.1,0-7.1c2-2,5.1-2,7.1,0
	l186.4,186.4c0.9,0.9,2,1.3,3.3,1.3c1.2-0.1,2.4-0.6,3.1-1.6L764.6,318c1.8-2.1,4.9-2.4,7-0.7C773.7,319.1,774,322.3,772.3,324.4z"
	/>
</svg>
