<?xml version="1.0" encoding="utf-8"?>
<!-- Generator: Adobe Illustrator 21.0.0, SVG Export Plug-In . SVG Version: 6.00 Build 0)  -->
<svg version="1.1" id="图层_1" xmlns="http://www.w3.org/2000/svg" xmlns:xlink="http://www.w3.org/1999/xlink" x="0px" y="0px"
	 viewBox="0 0 1024 1024" style="enable-background:new 0 0 1024 1024;" xml:space="preserve">
<style type="text/css">
	.st0{fill:#FFFFFF;}
</style>
<circle cx="511.3" cy="513.2" r="448"/>
<g>
	<path class="st0" d="M329.9,772.8c-20.2,0-40.3-7.7-55.7-23c-14.9-14.9-23.1-34.6-23.1-55.7c0-21,8.2-40.8,23.1-55.7L465,447.7
		c30.7-30.7,80.6-30.7,111.3,0c2,2,2,5.1,0,7.1c-2,2-5.1,2-7.1,0c-26.8-26.8-70.4-26.8-97.2,0L281.3,645.5
		c-13,13-20.1,30.2-20.1,48.6c0,18.4,7.1,35.6,20.1,48.6c26.8,26.8,70.4,26.8,97.2,0l138.4-138.4c2-2,5.1-2,7.1,0c2,2,2,5.1,0,7.1
		L385.6,749.7C370.3,765.1,350.1,772.8,329.9,772.8z"/>
</g>
<g>
	<path class="st0" d="M503.7,599.1c-20.2,0-40.3-7.7-55.7-23l7.1-7.1c26.8,26.8,70.4,26.8,97.2,0L743,378.3
		c13-13,20.1-30.2,20.1-48.6s-7.1-35.6-20.1-48.6c-26.8-26.8-70.4-26.8-97.2,0L507.4,419.4c-2,2-5.1,2-7.1,0c-2-2-2-5.1,0-7.1
		L638.7,274c30.7-30.7,80.6-30.7,111.3,0c14.9,14.9,23.1,34.6,23.1,55.7c0,21-8.2,40.8-23.1,55.7L559.3,576.1
		C544,591.4,523.8,599.1,503.7,599.1z"/>
</g>
</svg>
