<?xml version="1.0" encoding="utf-8"?>
<!-- Generator: Adobe Illustrator 21.0.0, SVG Export Plug-In . SVG Version: 6.00 Build 0)  -->
<svg version="1.1" id="图层_1" xmlns="http://www.w3.org/2000/svg" xmlns:xlink="http://www.w3.org/1999/xlink" x="0px" y="0px"
	 viewBox="0 0 1024 1024" style="enable-background:new 0 0 1024 1024;" xml:space="preserve">
<path d="M521.8,70.1l123.5,250.2c1.5,3.1,4.5,5.3,8,5.8l276.1,40.1c8.7,1.3,12.2,12,5.9,18.1L735.5,579.2c-2.5,2.4-3.6,6-3.1,9.4
	l47.2,275c1.5,8.7-7.6,15.3-15.4,11.2l-247-129.8c-3.1-1.6-6.8-1.6-9.9,0l-247,129.8c-7.8,4.1-16.9-2.5-15.4-11.2l47.2-275
	c0.6-3.4-0.6-7-3.1-9.4L89.3,384.4c-6.3-6.1-2.8-16.9,5.9-18.1l276.1-40.1c3.5-0.5,6.5-2.7,8-5.8L502.8,70.1
	C506.7,62.2,517.9,62.2,521.8,70.1z"/>
</svg>
