<?xml version="1.0" encoding="utf-8"?>
<!-- Generator: Adobe Illustrator 21.0.0, SVG Export Plug-In . SVG Version: 6.00 Build 0)  -->
<svg version="1.1" id="图层_1" xmlns="http://www.w3.org/2000/svg" xmlns:xlink="http://www.w3.org/1999/xlink" x="0px" y="0px"
	 viewBox="0 0 1024 1024" style="enable-background:new 0 0 1024 1024;" xml:space="preserve">
<path d="M916.8,766.8L548.9,158.3c-17.1-28.3-58.1-28.3-75.2,0L105.9,766.8c-17.7,29.3,3.4,66.7,37.6,66.7h735.7
	C913.4,833.5,934.5,796.1,916.8,766.8z M543,735.8c0,17.5-14.2,31.6-31.6,31.6h0c-17.5,0-31.6-14.2-31.6-31.6v0
	c0-17.5,14.2-31.6,31.6-31.6h0C528.8,704.2,543,718.4,543,735.8L543,735.8z M543,608.3c0,17.5-14.2,31.6-31.6,31.6h0
	c-17.5,0-31.6-14.2-31.6-31.6V287.6c0-17.5,14.2-31.6,31.6-31.6h0c17.5,0,31.6,14.2,31.6,31.6V608.3z"/>
</svg>
